<?xml version="1.0" encoding="UTF-8" standalone="no"?>
<!-- Generator: Adobe Illustrator 21.1.0, SVG Export Plug-In . SVG Version: 6.00 Build 0)  -->

<svg
   xmlns:dc="http://purl.org/dc/elements/1.1/"
   xmlns:cc="http://creativecommons.org/ns#"
   xmlns:rdf="http://www.w3.org/1999/02/22-rdf-syntax-ns#"
   xmlns:svg="http://www.w3.org/2000/svg"
   xmlns="http://www.w3.org/2000/svg"
   xmlns:sodipodi="http://sodipodi.sourceforge.net/DTD/sodipodi-0.dtd"
   xmlns:inkscape="http://www.inkscape.org/namespaces/inkscape"
   version="1.1"
   id="Layer_1"
   x="0px"
   y="0px"
   viewBox="0 0 39 28.8"
   style="enable-background:new 0 0 39 28.8;"
   xml:space="preserve"
   inkscape:version="0.91 r13725"
   sodipodi:docname="icons-03.svg"><metadata
     id="metadata11"><rdf:RDF><cc:Work
         rdf:about=""><dc:format>image/svg+xml</dc:format><dc:type
           rdf:resource="http://purl.org/dc/dcmitype/StillImage" /></cc:Work></rdf:RDF></metadata><defs
     id="defs9" /><sodipodi:namedview
     pagecolor="#ffffff"
     bordercolor="#666666"
     borderopacity="1"
     objecttolerance="10"
     gridtolerance="10"
     guidetolerance="10"
     inkscape:pageopacity="0"
     inkscape:pageshadow="2"
     inkscape:window-width="961"
     inkscape:window-height="480"
     id="namedview7"
     showgrid="false"
     inkscape:zoom="8.1944447"
     inkscape:cx="18.265427"
     inkscape:cy="14.4"
     inkscape:window-x="139"
     inkscape:window-y="107"
     inkscape:window-maximized="0"
     inkscape:current-layer="Layer_1" /><style
     type="text/css"
     id="style3">
	.st0{fill:none;stroke:#000000;stroke-width:3;stroke-linecap:round;stroke-linejoin:round;stroke-miterlimit:10;}
	.st1{fill:none;stroke:#000000;stroke-width:2;stroke-linecap:round;stroke-linejoin:round;stroke-miterlimit:10;}
	.st2{fill:#1E201D;}
	.st3{fill:#231F20;}
	.st4{clip-path:url(#SVGID_2_);}
	.st5{fill:none;stroke:#0F0E09;stroke-width:2;stroke-linecap:round;stroke-linejoin:round;stroke-miterlimit:10;}
	.st6{clip-path:url(#SVGID_4_);}
	.st7{clip-path:url(#SVGID_6_);}
	.st8{stroke:#231F20;stroke-width:0.55;stroke-miterlimit:10;}
</style><path
     d="M38.3,0c-0.4-0.1-0.9,0.1-1.1,0.5c-5,8.8-14.3,9.2-20.5,9.2V3.4c0-0.4-0.2-0.7-0.6-0.9c-0.3-0.2-0.8-0.1-1,0.1L0.4,14.9  C0.1,15.1,0,15.3,0,15.6c0,0.3,0.1,0.6,0.4,0.8l14.8,12.2c0.2,0.1,0.4,0.2,0.6,0.2c0.1,0,0.3,0,0.4-0.1c0.3-0.2,0.6-0.5,0.6-0.9  v-6.4c9.4-0.4,14.7-4.4,17.5-7.9C37.8,9.3,39,4.2,39,1C39,0.5,38.7,0.1,38.3,0L38.3,0z M15.7,19.5c-0.5,0-1,0.4-1,1v5.2L2.5,15.6  L14.8,5.5v5.2c0,0.3,0.1,0.5,0.3,0.7c0.2,0.2,0.4,0.3,0.7,0.3c5.7,0,14.7,0,20.8-6.9C35,10.8,29.8,19.4,15.7,19.5L15.7,19.5z   M15.7,19.5"
     id="path5"
     style="fill:#da7d33;fill-opacity:0.78431374" /></svg>