<?xml version="1.0" encoding="UTF-8" standalone="no"?>
<!-- Generator: Adobe Illustrator 21.1.0, SVG Export Plug-In . SVG Version: 6.00 Build 0)  -->

<svg
   xmlns:dc="http://purl.org/dc/elements/1.1/"
   xmlns:cc="http://creativecommons.org/ns#"
   xmlns:rdf="http://www.w3.org/1999/02/22-rdf-syntax-ns#"
   xmlns:svg="http://www.w3.org/2000/svg"
   xmlns="http://www.w3.org/2000/svg"
   xmlns:sodipodi="http://sodipodi.sourceforge.net/DTD/sodipodi-0.dtd"
   xmlns:inkscape="http://www.inkscape.org/namespaces/inkscape"
   version="1.1"
   id="Layer_1"
   x="0px"
   y="0px"
   viewBox="0 0 36.2 36.2"
   style="enable-background:new 0 0 36.2 36.2;"
   xml:space="preserve"
   inkscape:version="0.91 r13725"
   sodipodi:docname="icons-01.svg"><metadata
     id="metadata11"><rdf:RDF><cc:Work
         rdf:about=""><dc:format>image/svg+xml</dc:format><dc:type
           rdf:resource="http://purl.org/dc/dcmitype/StillImage" /></cc:Work></rdf:RDF></metadata><defs
     id="defs9" /><sodipodi:namedview
     pagecolor="#ffffff"
     bordercolor="#666666"
     borderopacity="1"
     objecttolerance="10"
     gridtolerance="10"
     guidetolerance="10"
     inkscape:pageopacity="0"
     inkscape:pageshadow="2"
     inkscape:window-width="735"
     inkscape:window-height="480"
     id="namedview7"
     showgrid="false"
     inkscape:zoom="6.5193369"
     inkscape:cx="18.1"
     inkscape:cy="18.1"
     inkscape:window-x="0"
     inkscape:window-y="0"
     inkscape:window-maximized="0"
     inkscape:current-layer="Layer_1" /><style
     type="text/css"
     id="style3">
	.st0{fill:none;stroke:#000000;stroke-width:3;stroke-linecap:round;stroke-linejoin:round;stroke-miterlimit:10;}
	.st1{fill:none;stroke:#000000;stroke-width:2;stroke-linecap:round;stroke-linejoin:round;stroke-miterlimit:10;}
	.st2{fill:#1E201D;}
	.st3{fill:#231F20;}
	.st4{clip-path:url(#SVGID_2_);}
	.st5{fill:none;stroke:#0F0E09;stroke-width:2;stroke-linecap:round;stroke-linejoin:round;stroke-miterlimit:10;}
	.st6{clip-path:url(#SVGID_4_);}
	.st7{clip-path:url(#SVGID_6_);}
	.st8{stroke:#231F20;stroke-width:0.55;stroke-miterlimit:10;}
</style><path
     d="M18.9,1.2V0H17v1.2C7.4,1.7,0,8.4,0,16.5v0.4l1.6-0.1v-0.2c0-1.4,1.5-2.6,3.3-2.6c1.8,0,3.4,1.2,3.4,2.7v0.2h1.9v-0.2  c0-1.5,1.5-2.7,3.4-2.7c1.8,0,3.4,1.2,3.4,2.7v14.9c0,2.6,2,4.6,4.5,4.6s4.5-2,4.5-4.6v-0.2H24v0.2c0,1.5-1.1,2.7-2.5,2.7  s-2.5-1.2-2.5-2.7V16.7c0-1.5,1.5-2.7,3.4-2.7c1.8,0,3.4,1.2,3.4,2.7v0.2h1.9v-0.2c0-1.5,1.5-2.7,3.4-2.7c1.8,0,3.3,1.2,3.3,2.6v0.2  h1.9v-0.3C36.2,8.3,28.6,1.5,18.9,1.2z M22.4,12.1c-1.7,0-3.3,0.8-4.3,2c-0.9-1.2-2.6-2-4.3-2c-1.7,0-3.3,0.7-4.3,2  c-0.9-1.2-2.6-2-4.3-2c-1,0-1.9,0.2-2.7,0.6c2-5.7,8.4-9.6,15.6-9.6c7.1,0,13.5,4,15.5,9.6c-0.8-0.4-1.7-0.6-2.7-0.6  c-1.7,0-3.3,0.8-4.3,2C25.7,12.8,24.1,12.1,22.4,12.1z"
     id="path5"
     style="fill-opacity:0.78431374;fill:#da7d33" /></svg>