<?xml version="1.0" encoding="UTF-8" standalone="no"?>
<!-- Generator: Adobe Illustrator 21.1.0, SVG Export Plug-In . SVG Version: 6.00 Build 0)  -->

<svg
   xmlns:dc="http://purl.org/dc/elements/1.1/"
   xmlns:cc="http://creativecommons.org/ns#"
   xmlns:rdf="http://www.w3.org/1999/02/22-rdf-syntax-ns#"
   xmlns:svg="http://www.w3.org/2000/svg"
   xmlns="http://www.w3.org/2000/svg"
   xmlns:sodipodi="http://sodipodi.sourceforge.net/DTD/sodipodi-0.dtd"
   xmlns:inkscape="http://www.inkscape.org/namespaces/inkscape"
   version="1.1"
   id="Layer_1"
   x="0px"
   y="0px"
   viewBox="0 0 38.7 26.4"
   style="enable-background:new 0 0 38.7 26.4;"
   xml:space="preserve"
   inkscape:version="0.91 r13725"
   sodipodi:docname="icons-02.svg"><metadata
     id="metadata11"><rdf:RDF><cc:Work
         rdf:about=""><dc:format>image/svg+xml</dc:format><dc:type
           rdf:resource="http://purl.org/dc/dcmitype/StillImage" /></cc:Work></rdf:RDF></metadata><defs
     id="defs9" /><sodipodi:namedview
     pagecolor="#ffffff"
     bordercolor="#666666"
     borderopacity="1"
     objecttolerance="10"
     gridtolerance="10"
     guidetolerance="10"
     inkscape:pageopacity="0"
     inkscape:pageshadow="2"
     inkscape:window-width="735"
     inkscape:window-height="480"
     id="namedview7"
     showgrid="false"
     inkscape:zoom="8.9393941"
     inkscape:cx="19.35"
     inkscape:cy="13.2"
     inkscape:window-x="0"
     inkscape:window-y="0"
     inkscape:window-maximized="0"
     inkscape:current-layer="Layer_1" /><style
     type="text/css"
     id="style3">
	.st0{fill:none;stroke:#000000;stroke-width:3;stroke-linecap:round;stroke-linejoin:round;stroke-miterlimit:10;}
	.st1{fill:none;stroke:#000000;stroke-width:2;stroke-linecap:round;stroke-linejoin:round;stroke-miterlimit:10;}
	.st2{fill:#1E201D;}
	.st3{fill:#231F20;}
	.st4{clip-path:url(#SVGID_2_);}
	.st5{fill:none;stroke:#0F0E09;stroke-width:2;stroke-linecap:round;stroke-linejoin:round;stroke-miterlimit:10;}
	.st6{clip-path:url(#SVGID_4_);}
	.st7{clip-path:url(#SVGID_6_);}
	.st8{stroke:#231F20;stroke-width:0.55;stroke-miterlimit:10;}
</style><path
     d="M36,8.3c-1-2.7-3.7-4.4-6.6-4.4h-3.1l0-0.1C25.7,1.6,23.7,0,21.4,0H5C3.6,0,2.4,0.5,1.4,1.4S0,3.6,0,5v14.3  c0,1.6,1.4,2.9,2.9,2.9h1.2l0,0.1c0.5,2.4,2.5,4,4.9,4c2.4,0,4.4-1.6,4.9-4l0-0.1h12.7l0,0.1c0.5,2.4,2.5,4,4.9,4  c2.5,0,4.5-1.8,4.9-4.2l0-0.1l0.1,0c1.2-0.4,2-1.6,2-2.8v-3.9c0-0.4,0-0.6-0.2-1L36,8.3z M9.1,24.6c-1.7,0-3.2-1.5-3.2-3.2  s1.5-3.2,3.2-3.2c1.7,0,3.2,1.5,3.2,3.2S10.8,24.6,9.1,24.6z M24.6,20.5H14l0-0.1c-0.5-2.4-2.5-4-4.9-4c-2.4,0-4.4,1.6-4.9,4l0,0.1  H2.9c-0.7,0-1.1-0.5-1.1-1.1V5c0-1.7,1.5-3.2,3.2-3.2h16.4c1.7,0,3.2,1.5,3.2,3.2V20.5z M31.6,24.6c-1.7,0-3.2-1.5-3.2-3.2  s1.5-3.2,3.2-3.2s3.2,1.5,3.2,3.2S33.3,24.6,31.6,24.6z M36.7,19.1c0,0.2,0,0.4-0.1,0.5l-0.1,0.3l-0.1-0.3c-0.7-2-2.6-3.3-4.7-3.3  c-2.4,0-4.4,1.6-4.9,4l0,0.1h-0.3V5.7h3c2.2,0,4,1.3,4.8,3.4l2.5,6.2V19.1z"
     id="path5"
     style="fill:#da7d33;fill-opacity:1" /></svg>