<?xml version="1.0" encoding="UTF-8" standalone="no"?>
<!-- Generator: Adobe Illustrator 21.1.0, SVG Export Plug-In . SVG Version: 6.00 Build 0)  -->

<svg
   xmlns:dc="http://purl.org/dc/elements/1.1/"
   xmlns:cc="http://creativecommons.org/ns#"
   xmlns:rdf="http://www.w3.org/1999/02/22-rdf-syntax-ns#"
   xmlns:svg="http://www.w3.org/2000/svg"
   xmlns="http://www.w3.org/2000/svg"
   xmlns:sodipodi="http://sodipodi.sourceforge.net/DTD/sodipodi-0.dtd"
   xmlns:inkscape="http://www.inkscape.org/namespaces/inkscape"
   version="1.1"
   id="Layer_1"
   x="0px"
   y="0px"
   viewBox="0 0 33 39.5"
   style="enable-background:new 0 0 33 39.5;"
   xml:space="preserve"
   inkscape:version="0.91 r13725"
   sodipodi:docname="icons-04.svg"><metadata
     id="metadata15"><rdf:RDF><cc:Work
         rdf:about=""><dc:format>image/svg+xml</dc:format><dc:type
           rdf:resource="http://purl.org/dc/dcmitype/StillImage" /></cc:Work></rdf:RDF></metadata><defs
     id="defs13" /><sodipodi:namedview
     pagecolor="#ffffff"
     bordercolor="#666666"
     borderopacity="1"
     objecttolerance="10"
     gridtolerance="10"
     guidetolerance="10"
     inkscape:pageopacity="0"
     inkscape:pageshadow="2"
     inkscape:window-width="735"
     inkscape:window-height="480"
     id="namedview11"
     showgrid="false"
     inkscape:zoom="5.9746835"
     inkscape:cx="16.5"
     inkscape:cy="19.75"
     inkscape:window-x="164"
     inkscape:window-y="250"
     inkscape:window-maximized="0"
     inkscape:current-layer="Layer_1" /><style
     type="text/css"
     id="style3">
	.st0{fill:none;stroke:#000000;stroke-width:3;stroke-linecap:round;stroke-linejoin:round;stroke-miterlimit:10;}
	.st1{fill:none;stroke:#000000;stroke-width:2;stroke-linecap:round;stroke-linejoin:round;stroke-miterlimit:10;}
	.st2{fill:#1E201D;}
	.st3{fill:#231F20;}
	.st4{clip-path:url(#SVGID_2_);}
	.st5{fill:none;stroke:#0F0E09;stroke-width:2;stroke-linecap:round;stroke-linejoin:round;stroke-miterlimit:10;}
	.st6{clip-path:url(#SVGID_4_);}
	.st7{clip-path:url(#SVGID_6_);}
	.st8{stroke:#231F20;stroke-width:0.55;stroke-miterlimit:10;}
</style><g
     id="g5"
     style="fill:#da7d33;fill-opacity:0.78431374"><path
       d="M31.9,5.8c-6.1,0-10.8-1.8-14.7-5.5C17,0.1,16.8,0,16.5,0S16,0.1,15.8,0.3C11.9,4.1,7.2,5.8,1.1,5.8c-0.6,0-1,0.5-1,1   c0,1,0,2,0,3.1c-0.2,10-0.5,23.7,16.1,29.4c0.2,0.1,0.5,0.1,0.7,0C33.4,33.7,33.2,20,33,10c0-1.1,0-2.1,0-3.1   C33,6.3,32.5,5.8,31.9,5.8z M16.6,37.3l-0.1,0l-0.1,0C1.7,31.9,1.9,20.3,2.1,10l0-2.1l0.4,0c5.6-0.2,10-1.9,13.8-5.2l0.2-0.2   l0.2,0.2c3.8,3.3,8.2,5,13.8,5.2l0.4,0l0,0.4c0,0.6,0,1.2,0,1.8C31.1,20.3,31.3,31.9,16.6,37.3z"
       id="path7"
       style="fill:#da7d33;fill-opacity:0.78431374" /><path
       d="M21.6,15.1l-7.1,7.1L11.4,19c-0.2-0.2-0.5-0.3-0.7-0.3c-0.3,0-0.5,0.1-0.7,0.3c-0.2,0.2-0.3,0.5-0.3,0.7   c0,0.3,0.1,0.5,0.3,0.7l3.9,3.9c0.4,0.4,1.1,0.4,1.5,0l7.8-7.8c0.2-0.2,0.3-0.5,0.3-0.7c0-0.3-0.1-0.5-0.3-0.7   C22.7,14.7,22,14.7,21.6,15.1z"
       id="path9"
       style="fill:#da7d33;fill-opacity:0.78431374" /></g></svg>