<?xml version="1.0" encoding="UTF-8" standalone="no"?>
<!-- Generator: Adobe Illustrator 21.1.0, SVG Export Plug-In . SVG Version: 6.00 Build 0)  -->

<svg
   xmlns:dc="http://purl.org/dc/elements/1.1/"
   xmlns:cc="http://creativecommons.org/ns#"
   xmlns:rdf="http://www.w3.org/1999/02/22-rdf-syntax-ns#"
   xmlns:svg="http://www.w3.org/2000/svg"
   xmlns="http://www.w3.org/2000/svg"
   xmlns:sodipodi="http://sodipodi.sourceforge.net/DTD/sodipodi-0.dtd"
   xmlns:inkscape="http://www.inkscape.org/namespaces/inkscape"
   version="1.1"
   id="Layer_1"
   x="0px"
   y="0px"
   viewBox="0 0 35.7 28.6"
   style="enable-background:new 0 0 35.7 28.6;"
   xml:space="preserve"
   inkscape:version="0.91 r13725"
   sodipodi:docname="icons-05.svg"><metadata
     id="metadata11"><rdf:RDF><cc:Work
         rdf:about=""><dc:format>image/svg+xml</dc:format><dc:type
           rdf:resource="http://purl.org/dc/dcmitype/StillImage" /></cc:Work></rdf:RDF></metadata><defs
     id="defs9" /><sodipodi:namedview
     pagecolor="#ffffff"
     bordercolor="#666666"
     borderopacity="1"
     objecttolerance="10"
     gridtolerance="10"
     guidetolerance="10"
     inkscape:pageopacity="0"
     inkscape:pageshadow="2"
     inkscape:window-width="735"
     inkscape:window-height="480"
     id="namedview7"
     showgrid="false"
     inkscape:zoom="8.2517481"
     inkscape:cx="17.85"
     inkscape:cy="14.3"
     inkscape:window-x="0"
     inkscape:window-y="0"
     inkscape:window-maximized="0"
     inkscape:current-layer="Layer_1" /><style
     type="text/css"
     id="style3">
	.st0{fill:none;stroke:#000000;stroke-width:3;stroke-linecap:round;stroke-linejoin:round;stroke-miterlimit:10;}
	.st1{fill:none;stroke:#000000;stroke-width:2;stroke-linecap:round;stroke-linejoin:round;stroke-miterlimit:10;}
	.st2{fill:#1E201D;}
	.st3{fill:#231F20;}
	.st4{clip-path:url(#SVGID_2_);}
	.st5{fill:none;stroke:#0F0E09;stroke-width:2;stroke-linecap:round;stroke-linejoin:round;stroke-miterlimit:10;}
	.st6{clip-path:url(#SVGID_4_);}
	.st7{clip-path:url(#SVGID_6_);}
	.st8{stroke:#231F20;stroke-width:0.55;stroke-miterlimit:10;}
</style><path
     d="M29.8,8.7l-0.1,0l0-0.1c-0.3-2.2-1.3-4.2-2.9-5.8C25,1,22.5,0,19.9,0c-3.1,0-6,1.4-7.8,3.9L12.1,4L12,4  c-0.4-0.1-0.8-0.1-1.2-0.1c-1.7,0-3.4,0.6-4.7,1.7C5,6.6,4.2,7.9,3.8,9.3l0,0.1l-0.1,0C1.4,10.6,0,13,0,15.6c0,3.9,3.1,7,7,7h8.8  l0,0.1c1.2,3,3,4.9,5.5,5.8c0.2,0.1,0.4,0.1,0.6,0c2.5-0.8,4.3-2.8,5.5-5.8l0-0.1h1.2c3.9,0,7-3.2,7-7C35.7,12.2,33.2,9.2,29.8,8.7z   M26.7,17.1c-0.2,2.3-1.1,7.7-5,9.3l-0.1,0l-0.1,0c-1.8-0.7-3.2-2.4-4.1-4.9c0-0.2-0.1-0.3-0.1-0.4c-0.5-1.6-0.7-3-0.8-4l0-0.1  l0.1,0c1.3-0.3,3.2-0.8,4.9-1.8l0.1-0.1l0.1,0.1c1.7,1.1,3.6,1.6,4.9,1.8l0.1,0L26.7,17.1z M28.7,20.6h-0.6l0-0.2  c0.5-2.3,0.6-4.1,0.6-4.3c0-0.5-0.4-1-0.9-1c0,0-3.3-0.3-5.6-2.1c-0.3-0.3-0.8-0.3-1.1,0c-2.3,1.7-5.6,2.1-5.6,2.1  c-0.5,0-0.9,0.5-0.9,1c0,0.2,0,2.1,0.6,4.3l0,0.2H7c-2.8,0-5-2.2-5-5c0-2,1.2-3.8,3.1-4.6c0.3-0.1,0.5-0.4,0.6-0.8  C6,7.8,8.2,5.9,10.8,5.9c0.5,0,1,0.1,1.4,0.2c0.4,0.1,0.8-0.1,1.1-0.4C14.7,3.4,17.2,2,19.9,2c4.2,0,7.8,3.4,7.9,7.6  c0,0.6,0.4,1,1,1c2.8,0,5,2.3,5,5C33.8,18.4,31.5,20.6,28.7,20.6z"
     id="path5"
     style="fill:#da7d33;fill-opacity:0.78431374" /></svg>