<?xml version="1.0" encoding="UTF-8" standalone="no"?>
<!-- Generator: Adobe Illustrator 21.1.0, SVG Export Plug-In . SVG Version: 6.00 Build 0)  -->

<svg
   xmlns:dc="http://purl.org/dc/elements/1.1/"
   xmlns:cc="http://creativecommons.org/ns#"
   xmlns:rdf="http://www.w3.org/1999/02/22-rdf-syntax-ns#"
   xmlns:svg="http://www.w3.org/2000/svg"
   xmlns="http://www.w3.org/2000/svg"
   xmlns:sodipodi="http://sodipodi.sourceforge.net/DTD/sodipodi-0.dtd"
   xmlns:inkscape="http://www.inkscape.org/namespaces/inkscape"
   version="1.1"
   id="Layer_1"
   x="0px"
   y="0px"
   viewBox="0 0 31.2 31.2"
   style="enable-background:new 0 0 31.2 31.2;"
   xml:space="preserve"
   inkscape:version="0.91 r13725"
   sodipodi:docname="icons-06.svg"><metadata
     id="metadata11"><rdf:RDF><cc:Work
         rdf:about=""><dc:format>image/svg+xml</dc:format><dc:type
           rdf:resource="http://purl.org/dc/dcmitype/StillImage" /></cc:Work></rdf:RDF></metadata><defs
     id="defs9" /><sodipodi:namedview
     pagecolor="#ffffff"
     bordercolor="#666666"
     borderopacity="1"
     objecttolerance="10"
     gridtolerance="10"
     guidetolerance="10"
     inkscape:pageopacity="0"
     inkscape:pageshadow="2"
     inkscape:window-width="735"
     inkscape:window-height="480"
     id="namedview7"
     showgrid="false"
     inkscape:zoom="7.5641024"
     inkscape:cx="15.6"
     inkscape:cy="15.6"
     inkscape:window-x="0"
     inkscape:window-y="0"
     inkscape:window-maximized="0"
     inkscape:current-layer="Layer_1" /><style
     type="text/css"
     id="style3">
	.st0{fill:none;stroke:#000000;stroke-width:3;stroke-linecap:round;stroke-linejoin:round;stroke-miterlimit:10;}
	.st1{fill:none;stroke:#000000;stroke-width:2;stroke-linecap:round;stroke-linejoin:round;stroke-miterlimit:10;}
	.st2{fill:#1E201D;}
	.st3{fill:#231F20;}
	.st4{clip-path:url(#SVGID_2_);}
	.st5{fill:none;stroke:#0F0E09;stroke-width:2;stroke-linecap:round;stroke-linejoin:round;stroke-miterlimit:10;}
	.st6{clip-path:url(#SVGID_4_);}
	.st7{clip-path:url(#SVGID_6_);}
	.st8{stroke:#231F20;stroke-width:0.55;stroke-miterlimit:10;}
</style><path
     d="M31.1,0.6C30.9,0.2,30.6,0,30.2,0C2.9,0,0,11.4,0,16.3c0,2.8,0.9,5.1,2.5,6.9c-1.6,3-2.5,5.6-2.5,7c0,0.5,0.4,0.9,0.9,0.9  s0.9-0.4,0.9-0.9c0-1.1,0.7-3.2,2-5.7C6,26.1,8.8,27,12.1,27c9.2,0,11.1-8.6,12.1-13.3c1.3-6.1,4.3-9.7,6.7-12.1  C31.2,1.3,31.2,0.9,31.1,0.6z M19.5,8.8C20,8.5,20.1,8,19.9,7.5c-0.2-0.5-0.8-0.7-1.3-0.4C12,10.3,6.8,16.2,3.5,21.4  c-1.1-1.4-1.7-3.1-1.7-5.1C1.9,12.1,4.5,2.5,28,1.9c-1.9,2.2-4.4,5.7-5.7,11.4c-1.3,5.7-3.2,11.8-10.2,11.8c-3,0-5.4-0.8-7.2-2.3  C7.8,17.9,12.7,12.1,19.5,8.8z"
     id="path5"
     style="fill:#da7d33;fill-opacity:0.78431374" /></svg>