<?xml version="1.0" encoding="UTF-8" standalone="no"?>
<svg id="_x31_" xmlns:rdf="http://www.w3.org/1999/02/22-rdf-syntax-ns#" xmlns="http://www.w3.org/2000/svg" enable-background="new 0 0 240 166" xml:space="preserve" viewBox="0 0 347 102.8" height="102.8" width="347" version="1.1" y="0px" x="0px" xmlns:cc="http://creativecommons.org/ns#" xmlns:dc="http://purl.org/dc/elements/1.1/"><g clip-rule="evenodd" fill-rule="evenodd"><path id="path3" d="m79.5 18.2c0-0.1 0.1-0.1 0.1-0.1v-0.1-0.1-0.1-0.1-0.1-0.1-0.1-0.1-0.1-0.1-0.1-0.1-0.1-0.1-0.1-0.1-0.1-0.1-0.1h-0.1v-0.1h-0.1s-0.1 0-0.1-0.1l-9.9-6.2h-0.1-0.1-0.1-0.1-0.1-0.1-0.1-0.1-0.1-0.1-0.1-0.1-0.1-0.1l-17.7 9.4-10.5-12.8-0.1-0.1s-0.1 0-0.1-0.1h-0.1-0.1-0.1-0.1-0.1-0.1l-34.5-6.2h-0.1-0.1-0.1-0.1-0.1-0.1-0.1-0.1-0.1-0.1-0.1-0.1-0.1-0.1-0.1v0.1h-0.1v0.1 0.1h-0.1v0.1 0.1 0.1 0.1 0.1 0.1 0.1 0.1 0.1 0.1 0.1 0.1 0.1 0.1 0.1 0.1 0.1 0.1 0.1 0.1l0.1 0.1 7.4 9.2h-9-0.1-0.1-0.1-0.1-0.1-0.1-0.1-0.1-0.1-0.1l-0.1 0.1h-0.1v0.1h-0.1v0.1 0.1 0.1 0.1 0.1 0.1 0.1 0.1 0.1 0.1 0.1 0.1 0.1 0.1 0.1 0.1 0.1 0.1 0.1 0.1 0.1 0.1 0.1l0.1 0.1h0.1l0.1 0.1 26.6 19.3-4.8 31.4v0.1 0.1 0.1 0.1 0.1 0.1 0.1 0.1 0.1 0.1 0.1 0.1s0 0.1 0.1 0.1v0.1 0.1h0.1l0.1 0.1h0.1s0.1 0 0.1 0.1c0 0 0.1 0 0.1 0.1h0.1 0.1 0.1 0.2 0.1c0.1 0 0.2-0.1 0.3-0.1s0.1-0.1 0.1-0.1c0.1 0 0.1-0.1 0.1-0.1l0.1-0.1 0.1-0.1c0-0.1 0.1-0.1 0.1-0.1l8.4-16.9 28-12.2h0.1 0.1v-0.1-0.1-0.1-0.1l5.2-16.4h11 0.1 0.1 0.1 0.1l0.1-0.1c0.1 0 0.1-0.1 0.1-0.1s0.1 0 0.1-0.1l0.1-0.1c1.7-1.6 1.8-1.6 1.8-1.7zm-12.8-4.4-5.9 18.7-8.8-10.8l14.7-7.9zm-59.4-10.6 30.1 5.4-8.6 21.5-21.5-26.9zm51.3 30.3-27.8-2.1 8.6-21.4l19.2 23.5zm-24.9 12.1-3-11.9 25.8 2-22.8 9.9zm-2.1 1.5-5.1 10.3 2.9-19.1 2.2 8.8zm-8.7-20.7-17.3-12.6h7.2l10.1 12.6zm46.4-13.2 5.2 3.2h-6.2l1-3.2z" fill="#ef7f1a"/><path id="path5" d="m236.4 7.8c0 1-1 4-3.2 9 1.6 2.6 2.4 4.4 2.4 5.6 0 1.8-0.4 2.8-1.2 3.2-0.5-1-1.2-2.1-2-3.5-1 2.9-2.8 6.8-5.4 11.7-0.5 0.5-1.2 0.8-2.4 0.8-3.6 0-5.4-0.7-5.4-2 0-0.7 1.4-3.1 4.4-7 3.3-4.5 5.1-7 5.4-7.6-2.9-4.6-8.4-6.9-16.3-6.9-3.8 0-7.8 0.6-12.1 1.8-5.2 1.4-9.9 3.5-13.9 6.4-5.4 3.7-8.1 7.7-8.1 11.9 0 3.4 2.3 6.3 6.9 8.8 1.8 0.9 5.5 2.2 11.1 4.1 16.4 5.4 24.7 12.2 24.7 20.6 0 6.5-4.6 13.1-13.9 19.9-6.4 4.8-13.9 9-22.5 12.6-8.9 3.7-17.8 5.6-26.5 5.6-6.3 0-11.9-1.1-16.8-3.3-6.5-2.8-9.8-7-9.8-12.5 0-5 3-10 9-15.3 4.3-3.7 9.4-7.1 15.5-10.2 2.1-1.1 3.7-1.6 4.9-1.6 0.6 0 0.9 0.2 0.9 0.5 0 0.5-0.6 1-1.8 1.6-1.6 0.6-3.9 1.7-7 3.3-10.6 5.8-15.9 12.2-15.9 19.4 0 4.4 2.2 7.7 6.6 9.9 3.5 1.8 7.6 2.7 12.5 2.7 6.1 0 12.9-1.2 20.4-3.7 7.5-2.4 14.8-6.3 21.8-11.5 8.9-6.5 13.4-12.8 13.4-19 0-6.4-5.5-11.7-16.6-15.9-1.6-0.6-4.6-1.6-9.2-3.1-4.8-1.4-7.9-2.5-9.3-3.2-3.6-2-5.4-4.4-5.4-7.4 0-7.8 5.2-14.2 15.8-19.4 8.7-4.3 17.4-6.5 26.3-6.5 8.6 0 14.6 2.1 17.8 6.3 1.5-2.1 2.4-4.1 2.8-6.1 0.2-1.4 0.7-2.1 1.4-2.1 0.4 0.3 0.7 0.9 0.7 2.1zm78.8 60.7v0.4c9.8-9.2 17.1-15 21.7-17.5 0.7-0.3 1.5-0.5 2.4-0.5 1.5 0 2.2 0.4 2.2 1.2 0 1.1-2 2.9-6 5.2-8 4.7-14.5 9.3-19.8 13.9 0.9 2.9 2.2 5.9 3.8 8.9 2.4 4.2 4.6 6.2 6.5 6.2 1.8 0 3.5-1.5 5.2-4.6 1.7-3 2.6-4.6 2.7-4.6 0.3 0 0.4 0.3 0.4 0.9 0 0.4-0.1 0.8-0.3 1.2-1.2 3.5-2.3 5.9-3.1 7.1-1.7 2.5-3.8 3.7-6.5 3.7-2.8 0-5.5-2-8.1-6-2.1-3.3-3.5-6.6-4-9.9-2.3 2.6-4.4 5.5-6.3 8.7 0.1 0.3 0.1 0.5 0.1 0.8 0 1.7-0.9 3.5-2.6 5.2-1.8 1.7-3.6 2.6-5.4 2.6-0.6 0-0.9-0.2-0.8-0.7 0.6-0.9 1.5-2.3 2.7-4.1 2-4.1 5.2-10.3 9.4-18.4-0.5-2.3-0.8-3.7-0.8-4.1 0-1.5 1.4-2.7 4.1-3.5 7.1-16.1 13.9-29.2 20.4-39.3-0.3-0.6-0.4-1.2-0.4-1.8 0-0.4 0.1-0.7 0.3-1.1 2.1-3.6 3.8-6.1 4.9-7.5 1-1 2.9-1.6 5.7-1.6 2.3 0 3.4 0.5 3.4 1.3 0-0.1-1.9 2.7-5.8 8.5-6.5 9.8-13 20.7-19.5 32.9-4.3 8.6-6.6 14.1-6.5 16.5zm-10.6-13.3c0-3-1.6-4.5-4.8-4.5-7.4 0-14.1 3.4-19.9 10.2-4.5 5.3-7.9 11.7-10.3 19.3-0.7 0.5-1.5 1.1-2.5 1.8-3.6 2.7-6.4 4.1-8.4 4.1-2.7 0-4-1.2-4-3.7 0-2.6 1.1-5.9 3.2-9.9 1.7-3.1 3.3-6.2 5-9.4 0.9-0.3 1.8-1.6 2.8-3.7s1.5-3.6 1.5-4.7c0-0.9-0.3-1.3-0.8-1.3-0.3 0-0.5 0.1-0.7 0.3l-0.1-0.1 0.1-0.1c-2.6 0-4.5 0.7-5.4 2.2-1.2 2.1-2 3.8-2.5 4.9-2.7 5.2-4.6 9-5.6 11.3-1.2 2.8-2 5.4-2.4 7.7-0.9 0.6-2 1.5-3.4 2.5-3.7 2.7-6.5 4.1-8.4 4.1-2.2 0-3.3-1.3-3.3-3.9 0-4.5 3.6-13.5 10.9-27.2 4.1-0.4 7.5-0.7 10.4-0.7s4.3-0.3 4.3-0.8c0-1.2-4.4-1.8-13.1-1.7 4.2-7.9 6.3-11.9 6.3-12.2 0-0.4-0.2-0.5-0.7-0.5 0.2 0-1.8 0.7-6 2.1-0.8 0.3-1.3 0.6-1.6 1-0.3 0.5-0.7 1.2-1.1 2.1-3.3 3.4-6.5 6.1-9.8 8.1-1.8 1-3 1.7-3.7 2.1s-1 0.8-1 1.2c0 0.6 0.5 0.9 1.5 0.9-0.3 0 2.6-0.3 8.5-1-4.1 7.9-6.3 12.4-6.8 13.3-2.6 5.9-4 10.5-4 13.9 0 4.4 2.2 6.6 6.5 6.6 2.6 0 5.5-1.1 8.8-3.2 2.1-1.3 3.9-2.8 5.5-4.5v1c0 4.4 2.2 6.6 6.5 6.6 2.6 0 5.4-1.1 8.6-3.2 1.5-0.9 2.9-2 4.2-3.1-0.1 0.8-0.2 1.6-0.2 2.5 0 1.7 0.2 2.8 0.7 3.5 0.5 0.9 1.9 1.3 4.1 1.3 7.8 0 15.2-2.7 22.3-8.1 3.3-2.6 4.9-4.8 4.9-6.9 0-0.4-0.2-0.5-0.5-0.5l-3.2 3.2c-2.6 2.6-4.9 4.6-7.1 6.1-3.2 2.1-6.1 3.2-8.8 3.2-3.2 0-4.8-1.6-4.8-4.6 0-3.1 1.9-8 5.6-14.7 3.6-6.5 6.8-10.7 9.4-12.6 2-1.4 3.6-2.1 5-2.1 1.5 0 2.2 1.3 2.2 3.8 0 2-0.3 3.8-1 5.3-0.2 0.3-0.3 0.5-0.3 0.7 0 0.3 0.2 0.4 0.5 0.4 1.7 0 3.2-0.9 4.6-2.8 1.6-1.9 2.3-3.7 2.3-5.6zm-29.1-15.8c0.5 0 0.7 0.2 0.7 0.7 0 1.3-1.2 2.7-3.5 4.2-2.4 1.5-4.3 2.3-5.8 2.3-0.3 0-0.5-0.8-0.5-2.3 0-1.9 0.3-2.9 0.8-3s2-0.5 4.4-1.1c1.9-0.5 3.2-0.8 3.9-0.8zm-33 9c-0.5 1.7-0.9 2.9-1.2 3.7-1.5 0.2-3 0.4-4.5 0.5 2.5-1.9 4.4-3.3 5.7-4.2z" fill="#ef7f1a"/><path id="path7" d="m115.3 82.9c0 1.7 0.7 2.5 2 2.5 1.8 0 4.5-1.3 7.9-3.9l5.1-3.9c0.2 0 0.3 0.2 0.3 0.5 0 0.8-0.5 1.7-1.3 2.8-1.6 1.8-3.8 3.6-6.7 5.3s-5.5 2.8-7.9 3.3c-1 0.2-1.8 0.3-2.5 0.3-2.5 0-3.7-1.3-3.7-3.9 0-1.7 0.6-4.1 1.7-7.3 6.5-17.1 16.9-36.3 31.2-57.3-0.2-0.6-0.3-1.2-0.3-1.9 0-0.4 0.1-0.8 0.1-1 2.3-3.9 3.9-6.4 4.9-7.5s2.9-1.7 5.7-1.7c2.3 0 3.5 0.5 3.5 1.3 0-0.3-2.9 3.9-8.8 12.7-9.5 14.4-18.5 30.3-27.2 48-2.6 5.4-4 9.3-4 11.7zm-26.1 0c0-2.4 1.3-6.3 4-11.7 8.7-17.7 17.7-33.6 27.2-47.8 5.8-8.8 8.8-13.1 8.8-12.7 0-0.9-1.1-1.3-3.5-1.3-2.8 0-4.7 0.6-5.7 1.7s-2.6 3.6-4.9 7.5c-0.1 0.3-0.1 0.6-0.1 1 0 0.6 0.1 1.2 0.3 1.9-14.2 21-24.6 40.1-31.2 57.3-1.1 3.2-1.7 5.6-1.7 7.3 0 2.6 1.2 3.9 3.7 3.9 0.7 0 1.5-0.1 2.5-0.3 2.4-0.5 5-1.6 7.9-3.3s5.1-3.5 6.7-5.3c0.9-1.1 1.3-2 1.3-2.8 0-0.3-0.1-0.5-0.3-0.5l-5.1 3.9c-3.4 2.6-6 3.9-7.9 3.9-1.3-0.2-2-1-2-2.7zm-19.6-27.6c-0.8-0.4-1.6-0.5-2.5-0.5-3.3 0-6.3 1.5-9 4.5-2.5 2.5-4.9 6.3-7.5 11.1s-4.4 9.1-5.6 12.9c-0.3 0.7-0.4 1.3-0.4 1.7 0 0.6 0.2 0.9 0.7 0.9 0.6 0 1.6-0.5 3.1-1.6 4.7-3.3 8.8-7.7 12.5-13.1 1.8-2.9 4.7-8.2 8.7-15.9zm-0.3 35.3c-4 0-6-2.9-6-8.6 0-3.6 0.6-8 1.7-13.1-2.4 4-6 8.4-10.7 13.1-5.7 5.8-10.3 8.6-13.6 8.6-1.7 0-2.5-1.1-2.5-3.5 0-5.4 2.5-12.2 7.5-20.5 5.4-9 10.6-13.4 15.6-12.9 2.8-1.4 5-2.1 6.6-2.1 0.5 0 2.4 0.2 5.4 0.7 1.2-0.5 2.3-0.7 3.1-0.7 1 0 1.4 0.4 1.4 1.3 0 0.8-0.5 2.3-1.4 4.5-1 2.2-1.7 3.4-2.3 3.5-1.2 2.4-2.3 5.7-3.2 10s-1.4 7.8-1.4 10.6c0 3.3 1 5 2.9 5s4.1-1.2 6.8-3.6 3.9-3.6 3.9-3.6c0.2 0 0.3 0.1 0.3 0.3 0 1.9-2.2 4.5-6.6 7.8-2.8 2.2-5.3 3.2-7.5 3.2z" fill="#2b2a29"/></g></svg>
