<?xml version="1.0" encoding="UTF-8" standalone="no"?>
<!-- Generator: Adobe Illustrator 21.1.0, SVG Export Plug-In . SVG Version: 6.00 Build 0)  -->

<svg
   xmlns:dc="http://purl.org/dc/elements/1.1/"
   xmlns:cc="http://creativecommons.org/ns#"
   xmlns:rdf="http://www.w3.org/1999/02/22-rdf-syntax-ns#"
   xmlns:svg="http://www.w3.org/2000/svg"
   xmlns="http://www.w3.org/2000/svg"
   xmlns:xlink="http://www.w3.org/1999/xlink"
   xmlns:sodipodi="http://sodipodi.sourceforge.net/DTD/sodipodi-0.dtd"
   xmlns:inkscape="http://www.inkscape.org/namespaces/inkscape"
   version="1.1"
   id="Layer_1"
   x="0px"
   y="0px"
   viewBox="0 0 25.4 14.5"
   style="enable-background:new 0 0 25.4 14.5;"
   xml:space="preserve"
   inkscape:version="0.91 r13725"
   sodipodi:docname="vk.svg"><metadata
     id="metadata21"><rdf:RDF><cc:Work
         rdf:about=""><dc:format>image/svg+xml</dc:format><dc:type
           rdf:resource="http://purl.org/dc/dcmitype/StillImage" /></cc:Work></rdf:RDF></metadata><defs
     id="defs19" /><sodipodi:namedview
     pagecolor="#ffffff"
     bordercolor="#666666"
     borderopacity="1"
     objecttolerance="10"
     gridtolerance="10"
     guidetolerance="10"
     inkscape:pageopacity="0"
     inkscape:pageshadow="2"
     inkscape:window-width="735"
     inkscape:window-height="480"
     id="namedview17"
     showgrid="false"
     inkscape:zoom="13.976378"
     inkscape:cx="12.7"
     inkscape:cy="7.25"
     inkscape:window-x="0"
     inkscape:window-y="0"
     inkscape:window-maximized="0"
     inkscape:current-layer="Layer_1" /><style
     type="text/css"
     id="style3">
	.st0{fill:none;stroke:#000000;stroke-width:3;stroke-linecap:round;stroke-linejoin:round;stroke-miterlimit:10;}
	.st1{fill:none;stroke:#000000;stroke-width:2;stroke-linecap:round;stroke-linejoin:round;stroke-miterlimit:10;}
	.st2{fill:#1E201D;}
	.st3{fill:#231F20;}
	.st4{clip-path:url(#SVGID_2_);}
	.st5{fill:none;stroke:#0F0E09;stroke-width:2;stroke-linecap:round;stroke-linejoin:round;stroke-miterlimit:10;}
	.st6{clip-path:url(#SVGID_4_);}
	.st7{clip-path:url(#SVGID_6_);}
	.st8{stroke:#231F20;stroke-width:0.55;stroke-miterlimit:10;}
</style><g
     id="g5"
     style="fill:#da7d33;fill-opacity:1"><g
       id="g7"
       style="fill:#da7d33;fill-opacity:1"><defs
         id="defs9"><rect
           id="SVGID_1_"
           y="0"
           width="25.4"
           height="14.5" /></defs><clipPath
         id="SVGID_2_"><use
           xlink:href="#SVGID_1_"
           style="overflow:visible;"
           id="use13" /></clipPath><path
         class="st4"
         d="M25.1,13c0-0.1-0.1-0.1-0.1-0.2c-0.4-0.8-1.3-1.8-2.5-2.9l0,0l0,0l0,0h0c-0.6-0.5-0.9-0.9-1.1-1.1    c-0.3-0.4-0.3-0.7-0.2-1.1c0.1-0.3,0.5-0.8,1.2-1.7c0.4-0.5,0.6-0.8,0.9-1.1c1.5-2,2.2-3.3,2-3.9l-0.1-0.1    c-0.1-0.1-0.2-0.2-0.4-0.2c-0.2-0.1-0.5-0.1-0.8,0l-3.8,0c-0.1,0-0.1,0-0.3,0c-0.1,0-0.2,0-0.2,0l-0.1,0l-0.1,0    c0,0-0.1,0.1-0.1,0.1c-0.1,0.1-0.1,0.1-0.1,0.2c-0.4,1.1-0.9,2-1.4,3c-0.3,0.5-0.6,1-0.9,1.4c-0.3,0.4-0.5,0.7-0.7,0.9    c-0.2,0.2-0.4,0.3-0.5,0.5C15.6,7,15.5,7,15.4,7c-0.1,0-0.2,0-0.2-0.1c-0.1-0.1-0.2-0.2-0.3-0.3c-0.1-0.1-0.1-0.3-0.2-0.5    c0-0.2,0-0.4,0-0.5c0-0.1,0-0.4,0-0.6c0-0.3,0-0.5,0-0.6c0-0.3,0-0.7,0-1.1c0-0.4,0-0.7,0-0.9c0-0.2,0-0.5,0-0.7    c0-0.3,0-0.5,0-0.6c0-0.1-0.1-0.3-0.1-0.4c-0.1-0.1-0.2-0.2-0.3-0.3c-0.1-0.1-0.3-0.1-0.4-0.2C13.4,0.1,12.8,0,12.1,0    C10.5,0,9.5,0.1,9,0.3C8.8,0.4,8.6,0.5,8.5,0.7C8.3,0.9,8.3,1,8.4,1C9,1.1,9.3,1.3,9.5,1.6l0.1,0.2c0.1,0.1,0.1,0.3,0.2,0.6    c0.1,0.3,0.1,0.6,0.1,1c0,0.6,0,1.2,0,1.6c0,0.5-0.1,0.8-0.1,1.1c0,0.3-0.1,0.5-0.2,0.6C9.5,6.8,9.5,6.9,9.5,6.9    c0,0,0,0.1-0.1,0.1C9.3,7,9.2,7.1,9,7.1C8.9,7.1,8.8,7,8.6,6.9C8.4,6.7,8.2,6.6,8.1,6.4C7.9,6.1,7.7,5.8,7.4,5.5    C7.2,5.1,6.9,4.6,6.7,4.1L6.5,3.7C6.3,3.5,6.2,3.1,5.9,2.6C5.7,2.2,5.5,1.7,5.3,1.3C5.3,1.1,5.2,1,5,0.9l-0.1,0    c0,0-0.1-0.1-0.2-0.1c-0.1,0-0.2-0.1-0.3-0.1l-3.6,0c-0.4,0-0.6,0.1-0.7,0.2L0,1c0,0,0,0.1,0,0.2c0,0.1,0,0.2,0.1,0.4    C0.6,2.8,1.2,4,1.8,5.1c0.6,1.1,1.2,2.1,1.6,2.8c0.5,0.7,0.9,1.4,1.4,2c0.5,0.6,0.8,1,0.9,1.2c0.2,0.2,0.3,0.3,0.4,0.4l0.3,0.3    c0.2,0.2,0.5,0.5,0.9,0.8c0.4,0.3,0.9,0.6,1.4,0.9c0.5,0.3,1.1,0.5,1.7,0.7c0.7,0.2,1.3,0.3,1.9,0.2h1.5c0.3,0,0.5-0.1,0.7-0.3    l0.1-0.1c0-0.1,0.1-0.1,0.1-0.2c0-0.1,0-0.2,0-0.4c0-0.4,0-0.7,0.1-1c0.1-0.3,0.1-0.5,0.2-0.7c0.1-0.2,0.2-0.3,0.3-0.4    c0.1-0.1,0.2-0.2,0.2-0.2c0,0,0.1,0,0.1,0c0.2-0.1,0.5,0,0.7,0.2c0.3,0.2,0.6,0.5,0.8,0.8c0.2,0.3,0.5,0.6,0.9,1    c0.4,0.4,0.7,0.7,0.9,0.8l0.3,0.2c0.2,0.1,0.4,0.2,0.7,0.3c0.3,0.1,0.5,0.1,0.7,0.1l3.4-0.1c0.3,0,0.6-0.1,0.8-0.2    c0.2-0.1,0.3-0.2,0.3-0.4c0-0.1,0-0.3,0-0.4C25.1,13.2,25.1,13.1,25.1,13L25.1,13z M25.1,13"
         id="path15"
         clip-path="url(#SVGID_2_)"
         style="fill:#da7d33;fill-opacity:1" /></g></g></svg>