<?xml version="1.0" encoding="UTF-8" standalone="no"?>
<!-- Generator: Adobe Illustrator 21.1.0, SVG Export Plug-In . SVG Version: 6.00 Build 0)  -->

<svg
   xmlns:dc="http://purl.org/dc/elements/1.1/"
   xmlns:cc="http://creativecommons.org/ns#"
   xmlns:rdf="http://www.w3.org/1999/02/22-rdf-syntax-ns#"
   xmlns:svg="http://www.w3.org/2000/svg"
   xmlns="http://www.w3.org/2000/svg"
   xmlns:sodipodi="http://sodipodi.sourceforge.net/DTD/sodipodi-0.dtd"
   xmlns:inkscape="http://www.inkscape.org/namespaces/inkscape"
   version="1.1"
   id="Layer_1"
   x="0px"
   y="0px"
   viewBox="0 0 27.6 19.7"
   style="enable-background:new 0 0 27.6 19.7;"
   xml:space="preserve"
   inkscape:version="0.91 r13725"
   sodipodi:docname="youtube.svg"><metadata
     id="metadata13"><rdf:RDF><cc:Work
         rdf:about=""><dc:format>image/svg+xml</dc:format><dc:type
           rdf:resource="http://purl.org/dc/dcmitype/StillImage" /></cc:Work></rdf:RDF></metadata><defs
     id="defs11" /><sodipodi:namedview
     pagecolor="#ffffff"
     bordercolor="#666666"
     borderopacity="1"
     objecttolerance="10"
     gridtolerance="10"
     guidetolerance="10"
     inkscape:pageopacity="0"
     inkscape:pageshadow="2"
     inkscape:window-width="735"
     inkscape:window-height="480"
     id="namedview9"
     showgrid="false"
     inkscape:zoom="11.979695"
     inkscape:cx="13.8"
     inkscape:cy="9.8500004"
     inkscape:window-x="0"
     inkscape:window-y="0"
     inkscape:window-maximized="0"
     inkscape:current-layer="Layer_1" /><style
     type="text/css"
     id="style3">
	.st0{fill:none;stroke:#000000;stroke-width:3;stroke-linecap:round;stroke-linejoin:round;stroke-miterlimit:10;}
	.st1{fill:none;stroke:#000000;stroke-width:2;stroke-linecap:round;stroke-linejoin:round;stroke-miterlimit:10;}
	.st2{fill:#1E201D;}
	.st3{fill:#231F20;}
	.st4{clip-path:url(#SVGID_2_);}
	.st5{fill:none;stroke:#0F0E09;stroke-width:2;stroke-linecap:round;stroke-linejoin:round;stroke-miterlimit:10;}
	.st6{clip-path:url(#SVGID_4_);}
	.st7{clip-path:url(#SVGID_6_);}
	.st8{stroke:#231F20;stroke-width:0.55;stroke-miterlimit:10;}
</style><g
     id="g5"
     style="fill:#da7d33;fill-opacity:1"><path
       d="M27.6,7.6c0-0.6-0.1-1.3-0.1-2.1c-0.1-0.8-0.2-1.6-0.3-2.3c-0.2-0.8-0.5-1.4-1.1-1.9c-0.5-0.5-1.2-0.8-1.9-0.9   C21.9,0.1,18.4,0,13.8,0C9.2,0,5.8,0.1,3.5,0.4C2.7,0.5,2.1,0.8,1.6,1.3C1,1.8,0.7,2.4,0.5,3.2C0.3,3.8,0.2,4.6,0.1,5.4   C0.1,6.3,0,7,0,7.6c0,0.6,0,1.3,0,2.3s0,1.8,0,2.3c0,0.6,0.1,1.3,0.1,2.1c0.1,0.8,0.2,1.6,0.3,2.3c0.2,0.8,0.5,1.4,1.1,1.9   c0.5,0.5,1.2,0.8,1.9,0.9c2.3,0.3,5.7,0.4,10.3,0.4c4.6,0,8.1-0.1,10.3-0.4c0.7-0.1,1.4-0.4,1.9-0.9c0.5-0.5,0.9-1.1,1.1-1.9   c0.2-0.7,0.3-1.4,0.3-2.3c0.1-0.8,0.1-1.5,0.1-2.1c0-0.6,0-1.3,0-2.3S27.6,8.1,27.6,7.6L27.6,7.6z M19.3,10.7l-7.9,4.9   c-0.1,0.1-0.3,0.2-0.5,0.2c-0.2,0-0.3,0-0.5-0.1c-0.3-0.2-0.5-0.5-0.5-0.9V4.9c0-0.4,0.2-0.7,0.5-0.9c0.3-0.2,0.7-0.2,1,0L19.3,9   c0.3,0.2,0.5,0.5,0.5,0.8C19.7,10.2,19.6,10.5,19.3,10.7L19.3,10.7z M19.3,10.7"
       id="path7"
       style="fill:#da7d33;fill-opacity:1" /></g></svg>